<svg xmlns="http://www.w3.org/2000/svg" version="1.1" xmlns:xlink="http://www.w3.org/1999/xlink" xmlns:svgjs="http://svgjs.dev/svgjs" width="1500" height="1500" viewBox="0 0 1500 1500"><rect width="1500" height="1500" fill="#444444"></rect><g transform="matrix(0.6666666666666666,0,0,0.6666666666666666,249.3939393939395,653.6972759699913)"><svg viewBox="0 0 396 76" data-background-color="#444444" preserveAspectRatio="xMidYMid meet" height="287" width="1500" xmlns="http://www.w3.org/2000/svg" xmlns:xlink="http://www.w3.org/1999/xlink"><g id="tight-bounds" transform="matrix(1,0,0,1,0.23999999999995225,0.25264996313939037)"><svg viewBox="0 0 395.52 75.49438276027568" height="75.49438276027568" width="395.52"><g><svg viewBox="0 0 513.6410407900656 98.04058792170204" height="75.49438276027568" width="395.52"><g transform="matrix(1,0,0,1,118.12104079006568,27.75547577903284)"><svg viewBox="0 0 395.52 42.529636363636364" height="42.529636363636364" width="395.52"><g id="textblocktransform"><svg viewBox="0 0 395.52 42.529636363636364" height="42.529636363636364" width="395.52" id="textblock"><g><svg viewBox="0 0 395.52 42.529636363636364" height="42.529636363636364" width="395.52"><g transform="matrix(1,0,0,1,0,0)"><svg width="395.52" viewBox="4.6 -37.5 351.96999999999997 37.85" height="42.529636363636364" data-palette-color="#ffffff"><path d="M4.6 0L4.6-35 11.45-35 23.55-11.25 35.55-35 42.4-35 42.4 0 36.95 0 36.9-26.75 25.4-3.65 21.65-3.65 10.05-26.75 10.05 0 4.6 0ZM51.25 0L51.25-26.55 56.95-26.55 56.95 0 51.25 0ZM54.1-37.5L54.1-37.5Q55.55-37.5 56.5-36.55 57.45-35.6 57.45-34.15L57.45-34.15Q57.45-32.75 56.5-31.78 55.55-30.8 54.1-30.8L54.1-30.8Q52.7-30.8 51.72-31.78 50.75-32.75 50.75-34.15L50.75-34.15Q50.75-35.6 51.72-36.55 52.7-37.5 54.1-37.5ZM87.35-22.65L84.2-18.95Q82.8-20.4 80.9-21.2 79-22 76.6-22L76.6-22Q74.3-22 72.5-20.9 70.7-19.8 69.7-17.82 68.7-15.85 68.7-13.25L68.7-13.25Q68.7-10.65 69.7-8.68 70.7-6.7 72.5-5.58 74.3-4.45 76.6-4.45L76.6-4.45Q79.1-4.45 81.1-5.28 83.1-6.1 84.45-7.7L84.45-7.7 87.65-4.55Q85.85-2.3 82.97-1.05 80.1 0.2 76.35 0.2L76.35 0.2Q72.4 0.2 69.37-1.5 66.35-3.2 64.65-6.23 62.95-9.25 62.95-13.25L62.95-13.25Q62.95-17.25 64.65-20.28 66.35-23.3 69.37-25.03 72.4-26.75 76.35-26.75L76.35-26.75Q79.95-26.75 82.72-25.68 85.5-24.6 87.35-22.65L87.35-22.65ZM108.59-26.75L108.59-21.55Q105.74-21.7 103.67-20.58 101.59-19.45 100.47-17.45 99.34-15.45 99.34-12.85L99.34-12.85 97.74-13.05Q97.74-17.5 99.04-20.55 100.34-23.6 102.79-25.18 105.24-26.75 108.59-26.75L108.59-26.75ZM93.64 0L93.64-26.55 99.39-26.55 99.39 0 93.64 0ZM124.74-26.75L124.74-26.75Q128.84-26.75 131.97-25.05 135.09-23.35 136.84-20.33 138.59-17.3 138.59-13.3L138.59-13.3Q138.59-9.3 136.84-6.25 135.09-3.2 131.97-1.5 128.84 0.2 124.74 0.2L124.74 0.2Q120.64 0.2 117.49-1.5 114.34-3.2 112.59-6.25 110.84-9.3 110.84-13.3L110.84-13.3Q110.84-17.3 112.59-20.33 114.34-23.35 117.49-25.05 120.64-26.75 124.74-26.75ZM124.74-22.1L124.74-22.1Q122.34-22.1 120.49-20.98 118.64-19.85 117.62-17.85 116.59-15.85 116.59-13.25L116.59-13.25Q116.59-10.6 117.62-8.6 118.64-6.6 120.49-5.48 122.34-4.35 124.74-4.35L124.74-4.35Q127.14-4.35 128.97-5.48 130.79-6.6 131.82-8.6 132.84-10.6 132.84-13.25L132.84-13.25Q132.84-15.85 131.82-17.85 130.79-19.85 128.97-20.98 127.14-22.1 124.74-22.1ZM168.69-31.85L166.24-26.9Q164.34-28.1 162.49-28.8 160.64-29.5 158.99-29.8 157.34-30.1 155.99-30.1L155.99-30.1Q153.39-30.1 151.84-29.1 150.29-28.1 150.29-26.2L150.29-26.2Q150.29-24.5 151.31-23.43 152.34-22.35 154.01-21.68 155.69-21 157.71-20.4 159.74-19.8 161.74-19.07 163.74-18.35 165.44-17.2 167.14-16.05 168.14-14.28 169.14-12.5 169.14-9.8L169.14-9.8Q169.14-6.7 167.44-4.42 165.74-2.15 162.76-0.9 159.79 0.35 155.94 0.35L155.94 0.35Q153.19 0.35 150.59-0.38 147.99-1.1 145.71-2.35 143.44-3.6 141.64-5.25L141.64-5.25 144.19-10.1Q145.99-8.45 148.01-7.3 150.04-6.15 152.11-5.55 154.19-4.95 156.04-4.95L156.04-4.95Q159.14-4.95 160.86-6.15 162.59-7.35 162.59-9.5L162.59-9.5Q162.59-11.25 161.56-12.33 160.54-13.4 158.86-14.1 157.19-14.8 155.16-15.35 153.14-15.9 151.11-16.63 149.09-17.35 147.41-18.45 145.74-19.55 144.71-21.3 143.69-23.05 143.69-25.75L143.69-25.75Q143.69-28.7 145.29-30.88 146.89-33.05 149.76-34.25 152.64-35.45 156.44-35.45L156.44-35.45Q159.84-35.45 163.04-34.45 166.24-33.45 168.69-31.85L168.69-31.85ZM177.84-15.2L194.09-15.2Q193.99-17.45 193.06-19.03 192.14-20.6 190.49-21.48 188.84-22.35 186.69-22.35L186.69-22.35Q184.29-22.35 182.51-21.25 180.74-20.15 179.74-18.18 178.74-16.2 178.74-13.55L178.74-13.55Q178.74-10.7 179.81-8.6 180.89-6.5 182.81-5.35 184.74-4.2 187.24-4.2L187.24-4.2Q191.69-4.2 194.74-7.35L194.74-7.35 197.79-4.3Q195.84-2.15 193.04-0.98 190.24 0.2 186.79 0.2L186.79 0.2Q182.69 0.2 179.64-1.5 176.59-3.2 174.89-6.23 173.19-9.25 173.19-13.25L173.19-13.25Q173.19-17.25 174.89-20.28 176.59-23.3 179.64-25 182.69-26.7 186.64-26.75L186.64-26.75Q191.34-26.75 194.19-24.83 197.04-22.9 198.24-19.4 199.44-15.9 199.09-11.1L199.09-11.1 177.84-11.1 177.84-15.2ZM220.03-26.75L220.03-21.55Q217.18-21.7 215.11-20.58 213.03-19.45 211.91-17.45 210.78-15.45 210.78-12.85L210.78-12.85 209.18-13.05Q209.18-17.5 210.48-20.55 211.78-23.6 214.23-25.18 216.68-26.75 220.03-26.75L220.03-26.75ZM205.08 0L205.08-26.55 210.83-26.55 210.83 0 205.08 0ZM230.88 0L220.58-26.55 226.58-26.55 233.98-5.3 241.28-26.55 247.03-26.55 236.83 0 230.88 0ZM251.03 0L251.03-26.55 256.73-26.55 256.73 0 251.03 0ZM253.88-37.5L253.88-37.5Q255.33-37.5 256.28-36.55 257.23-35.6 257.23-34.15L257.23-34.15Q257.23-32.75 256.28-31.78 255.33-30.8 253.88-30.8L253.88-30.8Q252.48-30.8 251.5-31.78 250.53-32.75 250.53-34.15L250.53-34.15Q250.53-35.6 251.5-36.55 252.48-37.5 253.88-37.5ZM287.13-22.65L283.98-18.95Q282.58-20.4 280.68-21.2 278.78-22 276.38-22L276.38-22Q274.08-22 272.28-20.9 270.48-19.8 269.48-17.82 268.48-15.85 268.48-13.25L268.48-13.25Q268.48-10.65 269.48-8.68 270.48-6.7 272.28-5.58 274.08-4.45 276.38-4.45L276.38-4.45Q278.88-4.45 280.88-5.28 282.88-6.1 284.23-7.7L284.23-7.7 287.43-4.55Q285.63-2.3 282.75-1.05 279.88 0.2 276.13 0.2L276.13 0.2Q272.18 0.2 269.15-1.5 266.13-3.2 264.43-6.23 262.73-9.25 262.73-13.25L262.73-13.25Q262.73-17.25 264.43-20.28 266.13-23.3 269.15-25.03 272.18-26.75 276.13-26.75L276.13-26.75Q279.73-26.75 282.5-25.68 285.28-24.6 287.13-22.65L287.13-22.65ZM293.42 0L293.42-26.55 299.12-26.55 299.12 0 293.42 0ZM296.27-37.5L296.27-37.5Q297.72-37.5 298.67-36.55 299.62-35.6 299.62-34.15L299.62-34.15Q299.62-32.75 298.67-31.78 297.72-30.8 296.27-30.8L296.27-30.8Q294.87-30.8 293.9-31.78 292.92-32.75 292.92-34.15L292.92-34.15Q292.92-35.6 293.9-36.55 294.87-37.5 296.27-37.5ZM319.02-26.75L319.02-26.75Q323.12-26.75 326.25-25.05 329.37-23.35 331.12-20.33 332.87-17.3 332.87-13.3L332.87-13.3Q332.87-9.3 331.12-6.25 329.37-3.2 326.25-1.5 323.12 0.2 319.02 0.2L319.02 0.2Q314.92 0.2 311.77-1.5 308.62-3.2 306.87-6.25 305.12-9.3 305.12-13.3L305.12-13.3Q305.12-17.3 306.87-20.33 308.62-23.35 311.77-25.05 314.92-26.75 319.02-26.75ZM319.02-22.1L319.02-22.1Q316.62-22.1 314.77-20.98 312.92-19.85 311.89-17.85 310.87-15.85 310.87-13.25L310.87-13.25Q310.87-10.6 311.89-8.6 312.92-6.6 314.77-5.48 316.62-4.35 319.02-4.35L319.02-4.35Q321.42-4.35 323.25-5.48 325.07-6.6 326.1-8.6 327.12-10.6 327.12-13.25L327.12-13.25Q327.12-15.85 326.1-17.85 325.07-19.85 323.25-20.98 321.42-22.1 319.02-22.1ZM356.12-24.15L354.02-20.1Q352.27-21.15 350.19-21.78 348.12-22.4 346.37-22.4L346.37-22.4Q344.67-22.4 343.57-21.75 342.47-21.1 342.47-19.6L342.47-19.6Q342.47-18.35 343.49-17.63 344.52-16.9 346.12-16.4 347.72-15.9 349.52-15.35 351.32-14.8 352.94-13.93 354.57-13.05 355.57-11.55 356.57-10.05 356.57-7.6L356.57-7.6Q356.57-4.9 355.14-3.18 353.72-1.45 351.39-0.63 349.07 0.2 346.37 0.2L346.37 0.2Q343.47 0.2 340.57-0.75 337.67-1.7 335.67-3.5L335.67-3.5 337.72-7.4Q339.47-5.85 341.97-4.98 344.47-4.1 346.62-4.1L346.62-4.1Q347.87-4.1 348.84-4.42 349.82-4.75 350.39-5.4 350.97-6.05 350.97-7.1L350.97-7.1Q350.97-8.5 349.97-9.3 348.97-10.1 347.37-10.63 345.77-11.15 343.97-11.68 342.17-12.2 340.59-13.05 339.02-13.9 338.02-15.35 337.02-16.8 337.02-19.2L337.02-19.2Q337.02-21.9 338.42-23.58 339.82-25.25 342.04-26.03 344.27-26.8 346.82-26.8L346.82-26.8Q349.32-26.8 351.82-26.1 354.32-25.4 356.12-24.15L356.12-24.15Z" opacity="1" transform="matrix(1,0,0,1,0,0)" fill="#ffffff" class="wordmark-text-0" data-fill-palette-color="primary" id="text-0"></path></svg></g></svg></g></svg></g></svg></g><g><svg viewBox="0 0 98.04058792170204 98.04058792170204" height="98.04058792170204" width="98.04058792170204"><g><svg></svg></g><g id="icon-0"><svg viewBox="0 0 98.04058792170204 98.04058792170204" height="98.04058792170204" width="98.04058792170204"><g><path d="M0 49.02c0-27.073 21.947-49.02 49.02-49.02 27.073 0 49.02 21.947 49.021 49.02 0 27.073-21.947 49.02-49.021 49.021-27.073 0-49.02-21.947-49.02-49.021zM49.02 94.205c24.955 0 45.185-20.23 45.185-45.185 0-24.955-20.23-45.185-45.185-45.185-24.955 0-45.185 20.23-45.185 45.185 0 24.955 20.23 45.185 45.185 45.185z" data-fill-palette-color="accent" fill="#00d1cd" stroke="transparent"></path></g><g transform="matrix(1,0,0,1,25.128963578704205,25.71167895387852)"><svg viewBox="0 0 47.78266076429363 46.617230013945004" height="46.617230013945004" width="47.78266076429363"><g><svg xmlns="http://www.w3.org/2000/svg" xmlns:xlink="http://www.w3.org/1999/xlink" version="1.1" x="0" y="0" viewBox="9 10 82 80" style="enable-background:new 0 0 100 100;" xml:space="preserve" height="46.617230013945004" width="47.78266076429363" class="icon-dxe-0" data-fill-palette-color="accent" id="dxe-0"><g fill="#00d1cd" data-fill-palette-color="accent"><path d="M81 10C75.5 10 71 14.5 71 20 71 21.4 71.3 22.6 71.8 23.8L54.5 41.1C53.1 40.4 51.6 40 50 40 44.5 40 40 44.5 40 50S44.5 60 50 60 60 55.5 60 50C60 47.6 59.1 45.3 57.7 43.6L74.1 27.2C75.9 28.9 78.3 30 81 30 86.5 30 91 25.5 91 20S86.5 10 81 10M50 56C46.7 56 44 53.3 44 50S46.7 44 50 44 56 46.7 56 50 53.3 56 50 56M81 26C77.7 26 75 23.3 75 20S77.7 14 81 14 87 16.7 87 20 84.3 26 81 26" fill="#00d1cd" data-fill-palette-color="accent"></path><path d="M50 30C55.5 30 60 25.5 60 20S55.5 10 50 10 40 14.5 40 20 44.5 30 50 30M50 14C53.3 14 56 16.7 56 20S53.3 26 50 26 44 23.3 44 20 46.7 14 50 14" fill="#00d1cd" data-fill-palette-color="accent"></path><path d="M81 40C75.5 40 71 44.5 71 50S75.5 60 81 60 91 55.5 91 50 86.5 40 81 40M81 56C77.7 56 75 53.3 75 50S77.7 44 81 44 87 46.7 87 50 84.3 56 81 56" fill="#00d1cd" data-fill-palette-color="accent"></path><path d="M19 70C13.5 70 9 74.5 9 80S13.5 90 19 90 29 85.5 29 80 24.5 70 19 70M19 86C15.7 86 13 83.3 13 80S15.7 74 19 74 25 76.7 25 80 22.3 86 19 86" fill="#00d1cd" data-fill-palette-color="accent"></path><path d="M81 70C76.2 70 72.1 73.4 71.2 78H59.8C58.9 73.4 54.8 70 50 70 46.9 70 44.1 71.4 42.3 73.7L25.8 57.3C27.7 55.5 29 52.9 29 50 29 45.2 25.6 41.1 21 40.2V29.8C25.6 28.9 29 24.8 29 20 29 14.5 24.5 10 19 10S9 14.5 9 20C9 24.8 12.4 28.9 17 29.8V40.2C12.4 41.1 9 45.2 9 50 9 55.5 13.5 60 19 60 20.2 60 21.3 59.8 22.3 59.4L40.3 77.4C40.1 78.3 40 79.1 40 80 40 85.5 44.5 90 50 90 54.8 90 58.9 86.6 59.8 82H71.2C72.1 86.6 76.2 90 81 90 86.5 90 91 85.5 91 80S86.5 70 81 70M13 20C13 16.7 15.7 14 19 14S25 16.7 25 20 22.3 26 19 26 13 23.3 13 20M13 50C13 46.7 15.7 44 19 44S25 46.7 25 50 22.3 56 19 56 13 53.3 13 50M50 86C46.7 86 44 83.3 44 80S46.7 74 50 74 56 76.7 56 80 53.3 86 50 86M81 86C77.7 86 75 83.3 75 80S77.7 74 81 74 87 76.7 87 80 84.3 86 81 86" fill="#00d1cd" data-fill-palette-color="accent"></path></g></svg></g></svg></g></svg></g></svg></g></svg></g><defs></defs></svg><rect width="395.52" height="75.49438276027568" fill="none" stroke="none" visibility="hidden"></rect></g></svg></g></svg>